:SAMPLES-PER-SECOND 30
:FULLY-SPECIFIED
:DEGREES
202
root  -41.6749 34.2211 10.9282 -131.203 75.384 -170.43
RightUpLeg  -53.8901 -10.511 11.8379
RightLeg  16.6364 -5.24756 -1.20488
RightFoot  7.48971 0.0634632 -0.456964
RightToes  -18.9209 -0.0741394 -0.168171
Spine  10.6732 1.88373 -0.0635719
Spine1  20.0845 4.62095 -0.582076
HEad  -15.4949 -0.729594 -7.78561
LeftShoulder1  -1.94126e-019 -3.10601e-018 -2.51263e-017
LeftArm  -8.71688 -20.2242 -73.2172
LeftForeArm  22.4285 -56.5844 -15.0086
LeftHand  -0.330773 2.02613 11.2516
RightShoulder  -4.96962e-017 0 -2.36833e-017
RightArm  -11.4398 25.3076 68.9915
RightForeArm  44.6001 54.2121 11.6158
RightHand  -0.314209 -2.31562 -11.5941
LeftUpLeg  -58.4143 4.93628 2.75513
LeftLeg  25.4112 7.9188 3.13905
LeftFoot  7.76834 -0.0800748 1.34088
LeftToes  -19.7802 1.83942e-006 5.51297e-008
203
root  -41.7527 34.1906 10.8776 -130.787 75.7446 -170.285
RightUpLeg  -54.5036 -10.1994 11.5733
RightLeg  17.107 -5.27296 -1.25647
RightFoot  7.44627 0.0634292 -0.449104
RightToes  -18.9764 -0.0743106 -0.168537
Spine  10.8665 1.83702 -0.044935
Spine1  20.3216 4.4552 -0.508903
HEad  -14.6444 -1.52634 -7.56648
LeftShoulder1  -1.94126e-019 -3.10601e-018 -2.51263e-017
LeftArm  -9.5609 -22.0056 -71.4002
LeftForeArm  25.4538 -62.7874 -19.5661
LeftHand  -0.35289 2.01014 11.9693
RightShoulder  -4.96962e-017 0 -2.36833e-017
RightArm  -13.451 27.9763 66.8767
RightForeArm  46.3837 60.8522 15.452
RightHand  -0.312755 -2.48525 -12.195
LeftUpLeg  -58.9937 5.12137 2.44394
LeftLeg  25.9117 7.94097 3.22786
LeftFoot  7.58038 -0.0769168 1.31396
LeftToes  -19.5622 1.83942e-006 5.51297e-008
204
root  -41.8139 34.1584 10.8321 -130.827 75.9189 -170.408
RightUpLeg  -54.9253 -10.0952 11.3565
RightLeg  17.6139 -5.27749 -1.3071
RightFoot  7.32687 0.0623763 -0.425976
RightToes  -18.9693 -0.0744676 -0.168873
Spine  11.1539 1.78551 0.0479096
Spine1  20.7384 4.33504 -0.348069
HEad  -14.0269 -2.18058 -7.36614
LeftShoulder1  -1.94126e-019 -3.10601e-018 -2.51263e-017
LeftArm  -10.7178 -24.1485 -69.7124
LeftForeArm  31.3221 -68.3143 -25.6752
LeftHand  -0.364972 1.99495 12.3352
RightShoulder  -4.96962e-017 0 -2.36833e-017
RightArm  -15.8626 30.7713 64.4154
RightForeArm  50.245 67.1011 20.9374
RightHand  -0.311136 -2.74701 -13.3061
LeftUpLeg  -59.3656 5.12829 2.25129
LeftLeg  26.3776 7.94779 3.30571
LeftFoot  7.3984 -0.0742295 1.28906
LeftToes  -19.2382 1.83942e-006 5.51297e-008
205
root  -41.8683 34.1343 10.7938 -131.152 76.0163 -170.774
RightUpLeg  -55.2468 -10.0382 11.1145
RightLeg  18.039 -5.38538 -1.3763
RightFoot  7.20784 0.062147 -0.414166
RightToes  -19.0087 -0.0745999 -0.16916
Spine  11.4418 1.72026 0.174783
Spine1  21.1729 4.21355 -0.164524
HEad  -13.3266 -2.636 -7.1086
LeftShoulder1  -1.94126e-019 -3.10601e-018 -2.51263e-017
LeftArm  -11.9792 -26.5491 -68.0963
LeftForeArm  39.148 -72.7049 -33.5919
LeftHand  -0.386576 2.04476 13.2724
RightShoulder  -4.96962e-017 0 -2.36833e-017
RightArm  -18.4898 33.5555 62.0412
RightForeArm  58.2835 72.6078 28.9173
RightHand  -0.324821 -2.83053 -14.3633
LeftUpLeg  -59.5552 4.92126 2.18777
LeftLeg  26.5999 8.16802 3.43361
LeftFoot  7.34075 -0.074948 1.31363
LeftToes  -19.1135 1.83942e-006 5.51297e-008
206
root  -41.9142 34.1153 10.7633 -131.719 76.1024 -171.322
RightUpLeg  -55.4599 -10.0092 10.8426
RightLeg  18.4003 -5.51567 -1.44662
RightFoot  7.0778 0.0621795 -0.40589
RightToes  -19.1421 -0.0746971 -0.169383
Spine  11.7183 1.61315 0.297058
Spine1  21.609 3.99547 0.0175212
HEad  -12.5543 -2.91191 -6.65748
LeftShoulder1  -1.94126e-019 -3.10601e-018 -2.51263e-017
LeftArm  -13.4991 -28.8581 -66.6644
LeftForeArm  49.3068 -76.0382 -43.8706
LeftHand  -0.374792 2.28886 13.8512
RightShoulder  -4.96962e-017 0 -2.36833e-017
RightArm  -21.0853 36.2699 60.2789
RightForeArm  70.6293 76.7595 39.7971
RightHand  -0.351391 -2.8178 -15.5069
LeftUpLeg  -59.632 4.84004 1.99054
LeftLeg  26.7232 8.13738 3.44133
LeftFoot  7.25592 -0.0730649 1.2961
LeftToes  -18.8046 1.83942e-006 5.51297e-008
207
root  -41.9535 34.1071 10.7401 -132.234 76.2471 -171.762
RightUpLeg  -55.5548 -9.92491 10.5528
RightLeg  18.6467 -5.63923 -1.50487
RightFoot  7.01803 0.0630089 -0.409042
RightToes  -19.0745 -0.0747487 -0.169525
Spine  12.021 1.48377 0.392888
Spine1  22.127 3.69466 0.203993
HEad  -11.7427 -3.20201 -6.2159
LeftShoulder1  -1.94126e-019 -3.10601e-018 -2.51263e-017
LeftArm  -15.0279 -31.0656 -65.4213
LeftForeArm  60.9709 -78.2162 -55.7372
LeftHand  -0.385113 2.32043 14.3862
RightShoulder  -4.96962e-017 0 -2.36833e-017
RightArm  -23.3481 38.6497 59.5375
RightForeArm  86.0259 79.4648 53.4635
RightHand  -0.417217 -2.54469 -16.7432
LeftUpLeg  -59.5976 4.80953 1.79607
LeftLeg  26.755 8.19501 3.47083
LeftFoot  7.31343 -0.0731805 1.30979
LeftToes  -18.9768 1.83942e-006 5.51297e-008
208
root  -41.984 34.1005 10.7347 -132.175 76.5596 -171.619
RightUpLeg  -55.5784 -9.60113 10.2189
RightLeg  18.8208 -5.69778 -1.53901
RightFoot  7.07836 0.0644084 -0.42063
RightToes  -19.1238 -0.0747441 -0.169568
Spine  12.3289 1.42517 0.453957
Spine1  22.6814 3.55032 0.318408
HEad  -11.2538 -3.48349 -5.75227
LeftShoulder1  -1.94126e-019 -3.10601e-018 -2.51263e-017
LeftArm  -16.1225 -33.0654 -64.6287
LeftForeArm  71.465 -79.3007 -65.1937
LeftHand  -0.43132 2.11511 15.1517
RightShoulder  -4.96962e-017 0 -2.36833e-017
RightArm  -24.8961 40.055 59.9345
RightForeArm  104.659 81.0592 70.4216
RightHand  -0.530081 -2.11438 -18.5772
LeftUpLeg  -59.5658 5.20226 1.45114
LeftLeg  26.8067 7.99928 3.39704
LeftFoot  7.21873 -0.0692288 1.26222
LeftToes  -18.6085 1.83942e-006 5.51297e-008
209
root  -42.008 34.0875 10.7276 -131.922 76.8581 -171.336
RightUpLeg  -55.7048 -9.56571 10.2374
RightLeg  18.9781 -5.42184 -1.48087
RightFoot  7.07377 0.0626719 -0.387923
RightToes  -19.2083 -0.074673 -0.169496
Spine  12.5309 1.40919 0.533712
Spine1  23.0501 3.49441 0.467667
HEad  -10.415 -4.10643 -5.47223
LeftShoulder1  -1.94126e-019 -3.10601e-018 -2.51263e-017
LeftArm  -16.1979 -34.2678 -65.0191
LeftForeArm  78.6229 -79.7665 -69.5042
LeftHand  -0.502733 1.79852 16.1587
RightShoulder  -4.96962e-017 0 -2.36833e-017
RightArm  -25.3706 39.9952 61.261
RightForeArm  124.346 81.6276 88.6199
RightHand  -0.597056 -2.0744 -20.6816
LeftUpLeg  -59.7 5.9139 0.850903
LeftLeg  26.9991 7.44875 3.19424
LeftFoot  7.04936 -0.0611238 1.15386
LeftToes  -18.7404 1.83942e-006 5.51297e-008
210
root  -42.0313 34.0698 10.7304 -131.642 77.1664 -171.06
RightUpLeg  -55.8634 -9.62552 10.3729
RightLeg  19.0909 -4.99901 -1.37653
RightFoot  6.99709 0.0593851 -0.333836
RightToes  -19.1202 -0.0745249 -0.169292
Spine  12.7897 1.33678 0.648788
Spine1  23.5734 3.31821 0.662922
HEad  -9.8654 -4.49738 -5.62352
LeftShoulder1  -1.94126e-019 -3.10601e-018 -2.51263e-017
LeftArm  -15.8104 -34.5068 -66.1744
LeftForeArm  81.1997 -79.9051 -70.3015
LeftHand  -0.54959 1.73466 17.3697
RightShoulder  -4.96962e-017 0 -2.36833e-017
RightArm  -24.567 39.2053 63.2333
RightForeArm  139.421 81.5499 101.52
RightHand  -0.63435 -2.23012 -23.0288
LeftUpLeg  -59.9583 6.56759 0.311957
LeftLeg  27.377 6.96966 3.04428
LeftFoot  6.80845 -0.0529821 1.0522
LeftToes  -18.3354 1.83942e-006 5.51297e-008
211
root  -42.0506 34.0419 10.7377 -131.274 77.5036 -170.647
RightUpLeg  -56.0161 -9.54025 10.4408
RightLeg  19.335 -4.77453 -1.33698
RightFoot  6.83679 0.0576402 -0.302816
RightToes  -19.0329 -0.0742892 -0.16894
Spine  13.0414 1.26823 0.790711
Spine1  24.11 3.13943 0.913312
HEad  -9.48122 -4.63589 -5.89701
LeftShoulder1  -1.94126e-019 -3.10601e-018 -2.51263e-017
LeftArm  -14.6067 -33.8596 -68.2308
LeftForeArm  75.4237 -79.4724 -64.2431
LeftHand  -0.54608 1.93261 18.2285
RightShoulder  -4.96962e-017 0 -2.36833e-017
RightArm  -22.6968 37.3124 65.59
RightForeArm  144.771 81.492 105.166
RightHand  -0.656094 -2.35806 -24.7953
LeftUpLeg  -60.3244 7.14487 -0.108899
LeftLeg  28.0759 6.62103 2.98901
LeftFoot  6.51247 -0.0463818 0.968362
LeftToes  -17.891 1.83942e-006 5.51297e-008
212
root  -42.0703 34.0131 10.7484 -130.674 77.9296 -169.998
RightUpLeg  -56.1666 -9.24823 10.3264
RightLeg  19.6461 -4.58746 -1.31183
RightFoot  6.68636 0.0565257 -0.282079
RightToes  -18.9785 -0.0739555 -0.168422
Spine  13.2593 1.23941 0.915901
Spine1  24.6209 3.04944 1.12763
HEad  -9.34804 -4.69398 -6.12498
LeftShoulder1  -1.94126e-019 -3.10601e-018 -2.51263e-017
LeftArm  -12.6531 -32.3673 -70.8503
LeftForeArm  64.5346 -78.1225 -52.3577
LeftHand  -0.538638 1.97099 18.1777
RightShoulder  -4.96962e-017 0 -2.36833e-017
RightArm  -20.0265 34.3094 68.0416
RightForeArm  138.214 81.7675 97.2701
RightHand  -0.61338 -2.6552 -25.665
LeftUpLeg  -60.6559 7.51934 -0.271754
LeftLeg  28.8225 6.62136 3.09315
LeftFoot  6.2581 -0.043478 0.940109
LeftToes  -17.7568 1.83942e-006 5.51297e-008
213
root  -42.0982 33.988 10.7637 -129.77 78.4856 -169.047
RightUpLeg  -56.3334 -8.86541 10.2316
RightLeg  19.9214 -4.41107 -1.28466
RightFoot  6.62357 0.0562214 -0.274444
RightToes  -19.0988 -0.0735134 -0.167722
Spine  13.396 1.2379 1.02359
Spine1  25.0332 3.01474 1.31794
HEad  -9.48761 -4.51947 -6.38986
LeftShoulder1  -1.94126e-019 -3.10601e-018 -2.51263e-017
LeftArm  -9.74491 -30.0053 -73.575
LeftForeArm  53.192 -75.0412 -37.8251
LeftHand  -0.555351 1.81314 17.9302
RightShoulder  -4.96962e-017 0 -2.36833e-017
RightArm  -16.6599 30.3827 70.4039
RightForeArm  116.586 81.5679 73.4661
RightHand  -0.535665 -3.00943 -25.713
LeftUpLeg  -60.9141 8.02662 -0.491454
LeftLeg  29.4178 6.56986 3.15239
LeftFoot  6.02517 -0.0406213 0.911054
LeftToes  -17.9798 1.83942e-006 5.51297e-008
214
root  -42.1305 33.9762 10.7793 -128.695 79.1653 -167.955
RightUpLeg  -56.4463 -8.40261 10.1048
RightLeg  20.0109 -4.2839 -1.25508
RightFoot  6.61084 0.0567062 -0.279852
RightToes  -18.8926 -0.0729523 -0.166823
Spine  13.455 1.21001 1.11086
Spine1  25.3541 2.90401 1.5111
HEad  -9.9159 -4.24132 -6.7337
LeftShoulder1  -1.94126e-019 -3.10601e-018 -2.51263e-017
LeftArm  -6.21537 -26.9082 -75.9798
LeftForeArm  46.5 -70.191 -26.3039
LeftHand  -0.588218 1.00898 15.5748
RightShoulder  -4.96962e-017 0 -2.36833e-017
RightArm  -12.8839 26.187 72.5856
RightForeArm  88.7267 78.3462 42.7626
RightHand  -0.428326 -3.44796 -25.1396
LeftUpLeg  -61.0341 8.39021 -0.590527
LeftLeg  29.7726 6.88249 3.3539
LeftFoot  5.92244 -0.0417643 0.942979
LeftToes  -18.1354 1.83942e-006 5.51297e-008
215
root  -42.1686 33.9977 10.782 -127.719 79.9384 -167.048
RightUpLeg  -56.4717 -7.99675 9.87068
RightLeg  19.7297 -3.92176 -1.12841
RightFoot  6.83237 0.0564282 -0.276372
RightToes  -18.6989 -0.0722618 -0.165708
Spine  13.457 1.12574 1.17723
Spine1  25.6276 2.6477 1.72007
HEad  -10.9024 -3.92694 -7.14764
LeftShoulder1  -1.94126e-019 -3.10601e-018 -2.51263e-017
LeftArm  -1.4622 -24.1221 -77.9406
LeftForeArm  44.8218 -62.7107 -17.1994
LeftHand  -0.660236 -0.409745 13.3124
RightShoulder  -4.96962e-017 0 -2.36833e-017
RightArm  -8.78189 22.6664 74.4455
RightForeArm  72.6819 70.2128 22.1956
RightHand  -0.511856 -3.03928 -24.8781
LeftUpLeg  -61.0126 8.66012 -0.74456
LeftLeg  29.73 7.3023 3.55048
LeftFoot  6.01001 -0.0452779 1.0109
LeftToes  -18.1286 1.83942e-006 5.51297e-008
216
root  -42.2033 34.0491 10.8014 -126.334 80.8691 -165.707
RightUpLeg  -56.2932 -7.37747 9.53975
RightLeg  19.1133 -3.73375 -1.03089
RightFoot  7.29427 0.0582348 -0.304948
RightToes  -18.4641 -0.0714313 -0.16436
Spine  13.3972 1.03937 1.14994
Spine1  25.7974 2.38828 1.82145
HEad  -11.8785 -3.66063 -7.35924
LeftShoulder1  -1.94126e-019 -3.10601e-018 -2.51263e-017
LeftArm  4.91468 -22.2171 -79.7276
LeftForeArm  47.33 -52.1998 -10.5337
LeftHand  -0.578183 -1.3689 10.09
RightShoulder  -4.96962e-017 0 -2.36833e-017
RightArm  -3.07374 20.1888 75.7179
RightForeArm  69.3542 58.1885 11.8658
RightHand  -0.592949 -2.72906 -25.4933
LeftUpLeg  -60.8229 9.3841 -1.23377
LeftLeg  29.344 7.40095 3.53703
LeftFoot  6.17626 -0.0471019 1.05207
LeftToes  -17.8683 1.83942e-006 5.51297e-008
